<svg width="80" height="80" viewBox="0 0 80 80" fill="none" xmlns="http://www.w3.org/2000/svg">
<rect x="1.52588e-05" width="80" height="80" rx="40" fill="#A2DC3F" fill-opacity="0.1"/>
<rect x="2.00002" y="2" width="76" height="76" rx="38" stroke="#A2DC3F" stroke-opacity="0.16" stroke-width="4"/>
<path d="M40.1705 45.7119H32.2047C32.0024 45.7119 31.8385 45.8759 31.8385 46.0781V46.7549C31.8385 46.9572 32.0024 47.1211 32.2047 47.1211H40.1705C40.3728 47.1211 40.5367 46.9572 40.5367 46.7549V46.0781C40.5367 45.8759 40.3728 45.7119 40.1705 45.7119Z" fill="#A2DC3F" fill-opacity="0.16"/>
<ellipse cx="27.6843" cy="46.4161" rx="1.72662" ry="1.72662" fill="#A2DC3F" fill-opacity="0.16"/>
<path d="M56.4295 15.745L23.4196 16.2618C21.769 16.2876 20.4519 17.6467 20.4777 19.2973L20.7913 39.3294C20.8172 40.98 22.1762 42.2972 23.8269 42.2713L56.8368 41.7545C58.4874 41.7287 59.8045 40.3696 59.7787 38.719L59.465 18.6869C59.4392 17.0363 58.0801 15.7191 56.4295 15.745Z" fill="#A2DC3F" fill-opacity="0.16" stroke="#75A428" stroke-width="0.5" stroke-linecap="round" stroke-linejoin="round"/>
<path d="M60.2963 28.4013L28.4073 19.8566C26.8127 19.4294 25.1737 20.3757 24.7464 21.9702L19.5611 41.3221C19.1338 42.9167 20.0801 44.5557 21.6747 44.983L53.5637 53.5276C55.1583 53.9549 56.7973 53.0086 57.2246 51.414L62.4099 32.0621C62.8371 30.4676 61.8908 28.8285 60.2963 28.4013Z" fill="white" stroke="#75A428" stroke-width="0.5" stroke-linecap="round" stroke-linejoin="round"/>
<path d="M55.526 37.2547L49.608 35.669C48.9456 35.4915 48.2647 35.8846 48.0873 36.547L47.1167 40.1691C46.9392 40.8315 47.3323 41.5123 47.9947 41.6898L53.9127 43.2755C54.5751 43.453 55.2559 43.0599 55.4334 42.3975L56.4039 38.7755C56.5814 38.1131 56.1883 37.4322 55.526 37.2547Z" fill="#A2DC3F" fill-opacity="0.16" stroke="#75A428" stroke-width="0.5" stroke-linecap="round" stroke-linejoin="round"/>
<path d="M47.8787 37.3256L50.2011 37.9478L50.3864 37.2561" stroke="#75A428" stroke-width="0.5" stroke-linecap="round" stroke-linejoin="round"/>
<path d="M47.3255 39.3896L49.6479 40.0119L49.4625 40.7037" stroke="#75A428" stroke-width="0.5" stroke-linecap="round" stroke-linejoin="round"/>
<path d="M56.2224 39.453L53.9379 38.8408" stroke="#75A428" stroke-width="0.5" stroke-linecap="round" stroke-linejoin="round"/>
<path d="M55.8398 40.8814L51.8362 39.8086" stroke="#75A428" stroke-width="0.5" stroke-linecap="round" stroke-linejoin="round"/>
<path d="M55.4571 42.3094L53.1726 41.6973" stroke="#75A428" stroke-width="0.5" stroke-linecap="round" stroke-linejoin="round"/>
<path d="M31.4924 35.8892L24.3143 33.9658L23.8052 35.8659L30.9833 37.7893L31.4924 35.8892Z" fill="#A2DC3F" fill-opacity="0.1"/>
<path d="M52.6289 49.5135L51.6842 53.0393L46.016 51.5206L46.9608 47.9947C47.3873 46.403 49.003 45.4547 50.5667 45.8736C51.3497 46.0835 51.9711 46.5959 52.3458 47.2536C52.7174 47.913 52.8422 48.7176 52.6289 49.5135Z" fill="#75A428" stroke="#75A428" stroke-width="0.5" stroke-linecap="round" stroke-linejoin="round"/>
<path d="M36.2109 70L18.9932 65.3866C17.655 65.028 16.8622 63.6324 17.2273 62.2699L17.9371 59.6211" stroke="#75A428" stroke-width="0.5" stroke-linecap="round" stroke-linejoin="round"/>
<path d="M36.211 69.9999L17.4587 64.9752C16.0235 64.5907 15.1785 63.0993 15.5694 61.6406C15.8744 60.5022 16.8424 59.7211 17.9372 59.6209C18.0606 59.6065 18.1856 59.6056 18.3116 59.6103L18.4667 59.6229L18.482 59.6242L37.4984 60.6765C35.4173 60.6656 33.4991 62.0741 32.9267 64.2103C32.2486 66.7408 33.7212 69.3328 36.211 69.9999Z" fill="#D7EEA8" stroke="#75A428" stroke-width="0.5" stroke-linecap="round" stroke-linejoin="round"/>
<path d="M50.5668 45.8742C49.0031 45.4553 47.3874 46.4036 46.9609 47.9953L41.8878 66.9284C41.2533 69.2963 38.8535 70.7079 36.5237 70.0837L36.211 69.9999C33.7212 69.3327 32.2486 66.7409 32.9267 64.2104C33.4991 62.0741 35.4173 60.6656 37.4983 60.6765L18.4819 59.6243L18.4667 59.6229L18.3116 59.6104C18.1855 59.6056 18.0606 59.6065 17.9372 59.6209L22.7878 41.5182C23.001 40.7223 23.5114 40.0878 24.1653 39.7033C24.8162 39.3204 25.613 39.1879 26.3937 39.3971L50.5668 45.8742Z" fill="white" stroke="#75A428" stroke-width="0.5" stroke-linecap="round" stroke-linejoin="round"/>
<path d="M26.7567 48.1426L29.1756 52.3625" stroke="#75A428" stroke-width="0.5" stroke-linecap="round" stroke-linejoin="round"/>
<path d="M30.0764 49.0433L25.8564 51.4623" stroke="#75A428" stroke-width="0.5" stroke-linecap="round" stroke-linejoin="round"/>
<path d="M36.8971 50.8936L39.3161 55.1135" stroke="#75A428" stroke-width="0.5" stroke-linecap="round" stroke-linejoin="round"/>
<path d="M40.2164 51.7943L35.9965 54.2133" stroke="#75A428" stroke-width="0.5" stroke-linecap="round" stroke-linejoin="round"/>
<path d="M27.0017 55.4365L35.6085 57.7712" stroke="#75A428" stroke-width="0.5" stroke-linecap="round" stroke-linejoin="round"/>
<path d="M13.8225 23.4489C13.8225 23.4489 10.5753 22.4815 9.60022 25.7144C10.5752 22.4815 7.33468 21.4921 7.33468 21.4921C7.33468 21.4921 10.5819 22.4594 11.557 19.2266C10.5819 22.4594 13.8225 23.4489 13.8225 23.4489Z" fill="white" stroke="#75A428" stroke-width="0.5" stroke-linecap="round" stroke-linejoin="round"/>
<path d="M73.3009 43.087C73.3009 43.087 70.5277 46.3404 73.7606 49.1151C70.5277 46.3403 67.7324 49.5747 67.7324 49.5747C67.7324 49.5747 70.5056 46.3213 67.2727 43.5465C70.5056 46.3213 73.3009 43.087 73.3009 43.087Z" fill="white" stroke="#75A428" stroke-width="0.5" stroke-linecap="round" stroke-linejoin="round"/>
</svg>
