<svg width="44" height="44" viewBox="0 0 44 44" fill="none" xmlns="http://www.w3.org/2000/svg">
<g filter="url(#filter0_d_3059_28271)">
<path d="M2 21C2 9.95431 10.9543 1 22 1C33.0457 1 42 9.95431 42 21C42 32.0457 33.0457 41 22 41C10.9543 41 2 32.0457 2 21Z" fill="white" shape-rendering="crispEdges"/>
<path fill-rule="evenodd" clip-rule="evenodd" d="M16.6118 7.76464C16.2234 7.8271 15.807 8.01986 15.4908 8.24956C15.9475 8.72992 16.5515 9.07683 17.2268 9.09536C17.5017 9.1029 17.7919 9.05562 18.0407 8.93457C18.069 8.92089 18.0978 8.9078 18.1265 8.89472C18.2803 8.82473 18.4333 8.75513 18.5086 8.59683C18.4795 8.48933 18.4347 8.44974 18.3643 8.38765C18.3505 8.37554 18.3358 8.36256 18.3201 8.34806C17.7934 7.96407 17.2948 7.65475 16.6118 7.76464Z" fill="#0B4B26"/>
<path d="M30.7402 18.4771L30.7637 18.4807C30.9596 18.51 31.1586 18.4942 31.3544 18.5208C31.8139 18.5835 32.2638 18.8509 32.5419 19.2195C32.7696 19.5213 32.9266 19.9003 33.023 20.264C32.5078 20.2694 31.9184 20.2888 31.4748 19.9801C31.1172 19.7624 30.8398 19.3483 30.6609 18.9765C30.5946 18.8387 30.5168 18.6693 30.5692 18.5199L30.7402 18.4771Z" fill="#97C646"/>
<path d="M14.6579 21.7186C15.0629 21.6957 15.4271 21.8171 15.803 21.9516C15.6885 22.1177 15.561 22.2818 15.4266 22.4321C15.0287 22.877 14.5897 23.159 13.9818 23.1933C13.5696 23.1818 13.2209 23.0859 12.8313 22.9548C12.856 22.9187 12.8811 22.8828 12.9065 22.8472C13.3589 22.2136 13.8894 21.8454 14.6579 21.7186Z" fill="#6D944B"/>
<path d="M18.5789 12.2219C18.7018 12.2108 18.8254 12.1995 18.9488 12.1956C19.4449 12.18 19.9075 12.3366 20.2694 12.6832C20.4605 12.8663 20.9197 13.4521 20.9255 13.6868C20.8467 13.7662 20.6815 13.7746 20.5734 13.7929C20.2909 13.8266 20.0379 13.8166 19.7625 13.7429C19.2016 13.5927 18.6154 13.1978 18.3283 12.6821C18.2618 12.5627 18.2343 12.4587 18.272 12.3251C18.3705 12.2323 18.4471 12.2417 18.5789 12.2219Z" fill="#0B4B26"/>
<path d="M11.2956 17.6925C11.6919 17.3275 12.0262 17.1399 12.5813 17.1633C12.9654 17.1796 13.3961 17.2282 13.772 17.3085C13.392 17.8825 12.982 18.3886 12.2704 18.5296C11.8401 18.6149 11.3969 18.5428 10.9709 18.4675L10.8178 18.4231L10.7867 18.3519C10.8635 18.1004 11.1209 17.8827 11.2956 17.6925Z" fill="#0B4B26"/>
<path d="M26.4793 8.95508C26.4835 8.95667 26.4882 8.95743 26.492 8.95979C26.5317 8.9843 26.5569 9.01113 26.5664 9.05579C26.6438 9.42249 26.3993 9.90071 26.2008 10.2023C25.8141 10.7901 25.1528 11.0316 24.497 11.1656C24.4643 11.1562 24.4722 11.1616 24.4484 11.1453C24.3991 11.1115 24.3911 11.1036 24.3796 11.0427C24.3227 10.7412 24.543 10.1884 24.7083 9.9366C25.1117 9.32236 25.796 9.09813 26.4793 8.95508Z" fill="#0B4B26"/>
<path d="M15.111 19.9021C15.1896 19.8918 15.2668 19.8899 15.346 19.8928C16.0912 19.9197 16.8146 20.384 17.3126 20.9138C16.8477 21.1483 16.3544 21.3718 15.843 21.4762C15.7201 21.4905 15.5968 21.4962 15.4731 21.4933C14.734 21.4775 14.1528 20.9955 13.6654 20.4865C14.1501 20.1903 14.5517 20.0068 15.111 19.9021Z" fill="#97C646"/>
<path d="M17.9171 6C18.4561 6.10686 19.0436 6.33672 19.4421 6.72774C20.0152 7.2902 20.1885 8.19968 20.194 8.97217C19.6236 8.75922 18.9479 8.47775 18.5023 8.04847C17.9431 7.50971 17.9339 6.72326 17.9171 6Z" fill="#97C646"/>
<path d="M12.8596 15.3359C12.865 15.3354 12.8705 15.3347 12.8759 15.3343C13.7766 15.2672 14.4739 15.8008 15.1276 16.3532C15.0154 16.4147 14.9014 16.4726 14.7856 16.5269C14.6698 16.5812 14.5524 16.6318 14.4334 16.6787C14.3144 16.7256 14.1941 16.7688 14.0724 16.8082C13.9507 16.8476 13.8279 16.8831 13.704 16.9148C13.6078 16.9277 13.5113 16.9358 13.4144 16.9391C12.5686 16.9724 12.0112 16.483 11.4273 15.9417C11.8715 15.6518 12.3359 15.4297 12.8596 15.3359Z" fill="#6D944B"/>
<path d="M27.1295 19.8684C27.3146 19.8457 27.5119 19.8333 27.6976 19.8524C28.4353 19.9281 28.9986 20.3916 29.4502 20.9495C29.0791 21.2565 28.5523 21.3941 28.0836 21.4377C28.0703 21.4394 28.057 21.4415 28.0436 21.4422C27.1412 21.4902 26.3958 20.93 25.7628 20.3593C26.2058 20.1337 26.6431 19.9727 27.1295 19.8684Z" fill="#6D944B"/>
<path d="M15.3457 17.296C15.3985 17.2869 15.4534 17.2907 15.507 17.2913L15.5509 17.3561C15.5698 17.828 15.3319 18.3603 15.0475 18.7282C14.5419 19.3821 13.8152 19.6702 13.0176 19.7741L12.8989 19.7642C12.8594 19.7209 12.8405 19.7098 12.8323 19.6497C12.7726 19.2117 13.1734 18.5259 13.4365 18.1965C13.9047 17.6105 14.6296 17.3767 15.3457 17.296Z" fill="#6D944B"/>
<path d="M31.0932 12.9101C31.9262 12.83 32.568 13.2596 33.2132 13.7268C32.6768 14.1066 32.1853 14.3928 31.5274 14.4861C30.787 14.5151 29.9665 14.1169 29.421 13.6368C29.9245 13.2916 30.4944 13.0283 31.0932 12.9101Z" fill="#0B4B26"/>
<path d="M28.2227 18.0344C29.0153 18.216 29.8957 18.4917 30.3525 19.2231C30.6411 19.6853 30.7328 20.2477 30.7687 20.7829C30.0887 20.7314 29.4526 20.5371 28.9919 20.0011C28.9412 19.9419 28.8928 19.8808 28.8466 19.818C28.7736 19.7392 28.724 19.6621 28.6724 19.5683C28.3681 19.11 28.2447 18.5792 28.2227 18.0344Z" fill="#0B4B26"/>
<path d="M27.9989 8.34863C28.0713 8.36817 28.1036 8.38351 28.1501 8.44583C28.4979 8.91201 28.6072 9.634 28.5343 10.1974C28.4408 10.9198 28.0863 11.5082 27.5132 11.9502C27.4919 11.9342 27.472 11.9171 27.4537 11.8976C27.2018 11.6305 26.9587 10.6051 26.9637 10.2125C26.9738 9.42123 27.4648 8.87076 27.9989 8.34863Z" fill="#0B4B26"/>
<path d="M16.6204 11.2029C16.6311 11.2058 16.6469 11.2096 16.6577 11.2145C17.0181 11.3788 17.544 12.0278 17.7048 12.3946C18.0417 13.1629 17.7968 14.0251 17.5091 14.767C17.4267 14.7498 17.3601 14.708 17.2898 14.663C16.7596 14.3233 16.4579 13.7949 16.3231 13.1899C16.1746 12.5236 16.2485 11.7855 16.6204 11.2029Z" fill="#0B4B26"/>
<path d="M20.8369 6.38843C21.042 6.56023 21.2525 6.7307 21.437 6.92514C21.8581 7.3692 22.092 7.88814 22.0714 8.50583C22.0601 8.84491 21.9003 9.80117 21.6743 10.0134C21.1189 9.57161 20.6049 8.95943 20.4554 8.24883C20.3287 7.64742 20.5067 6.89769 20.8369 6.38843Z" fill="#0B4B26"/>
<path d="M30.832 16.6406C30.8554 16.6378 30.8783 16.6353 30.9018 16.6337C31.7683 16.574 32.4093 16.9009 33.0537 17.4546C32.5984 17.7951 32.0931 18.0559 31.5411 18.1906C30.7149 18.2817 29.9048 17.8448 29.2686 17.3569C29.7595 16.9855 30.2246 16.7555 30.832 16.6406Z" fill="#0B4B26"/>
<path d="M17.9196 9.25195C18.5047 9.2977 19.0771 9.50707 19.5304 9.88541C19.8626 10.1628 20.3241 10.7509 20.3562 11.1988C20.3614 11.2709 20.3509 11.2748 20.3067 11.3263C20.1389 11.3943 19.9518 11.3911 19.7732 11.4007C19.3347 11.374 18.9019 11.2613 18.522 11.0373C17.885 10.6617 17.4466 10.046 17.2604 9.33515C17.4795 9.28864 17.6966 9.26961 17.9196 9.25195Z" fill="#6D944B"/>
<path d="M30.7484 10.5166C30.7776 10.538 30.7909 10.5762 30.8074 10.608C30.8084 11.2854 30.5559 11.9626 30.1412 12.4945C29.4603 13.3678 28.5748 13.7474 27.4986 13.8807C27.4506 13.8551 27.4475 13.8342 27.4232 13.7866C27.4573 13.2878 27.8825 12.2631 28.1372 11.8383C28.6937 10.9099 29.7815 10.7555 30.7484 10.5166Z" fill="#6D944B"/>
<path d="M26.2362 17.7324C26.7939 17.6514 27.3974 17.7792 27.944 17.8865C27.6323 18.3697 27.3026 18.8774 26.9121 19.3002C26.4803 19.7676 25.9963 19.9685 25.3673 19.9946C24.754 19.9966 24.1359 20.0097 23.526 19.9364C23.7226 19.5805 23.9838 19.2516 24.2414 18.9376C24.8453 18.2016 25.2605 17.8281 26.2362 17.7324Z" fill="#0B4B26"/>
<path d="M14.2147 14.5697C14.0756 14.3428 13.9413 13.9506 13.8989 13.6869C13.9309 13.6424 13.9647 13.6139 14.017 13.5953C14.4579 13.4385 15.2444 13.6434 15.6495 13.8458C15.9838 14.0091 16.3918 14.2237 16.6242 14.5223C17.0067 14.8578 17.5699 15.8042 17.613 16.3186C17.6167 16.3619 17.6118 16.4044 17.6027 16.4468C17.5388 16.5031 17.5161 16.4937 17.4355 16.4885C16.5272 16.4293 15.3551 16.1895 14.7316 15.4656C14.6955 15.4236 14.6599 15.3811 14.6249 15.3381C14.4718 15.0926 14.3177 14.8409 14.2147 14.5697Z" fill="#97C646"/>
<path d="M16.7279 18.2769C16.9704 18.2423 17.2433 18.2689 17.4835 18.3106C18.5878 18.5024 19.3523 19.2411 19.973 20.1246L18.7581 20.3495C18.6906 20.3627 18.6227 20.3737 18.5544 20.3823C18.4862 20.3909 18.4177 20.3972 18.349 20.4011C18.2804 20.4051 18.2116 20.4066 18.1428 20.4058C18.074 20.405 18.0053 20.4019 17.9368 20.3964C17.8682 20.3909 17.7999 20.383 17.7318 20.3729C17.6638 20.3627 17.5962 20.3502 17.529 20.3354C17.4618 20.3205 17.3952 20.3034 17.3292 20.284C17.2632 20.2646 17.1979 20.243 17.1334 20.2191C17.1101 20.2103 17.087 20.2012 17.064 20.1918C17.0409 20.1823 17.018 20.1726 16.9952 20.1627C16.9724 20.1527 16.9498 20.1425 16.9272 20.132C16.9047 20.1215 16.8822 20.1107 16.8599 20.0996C16.8377 20.0885 16.8155 20.0772 16.7935 20.0656C16.7715 20.054 16.7496 20.0422 16.7279 20.03C16.7062 20.0179 16.6846 20.0055 16.6632 19.9929C16.6417 19.9802 16.6205 19.9673 16.5994 19.9541C16.5782 19.941 16.5573 19.9275 16.5365 19.9139C16.5157 19.9002 16.4951 19.8863 16.4746 19.8721C16.4542 19.8579 16.4339 19.8435 16.4138 19.8289C16.3937 19.8142 16.3738 19.7993 16.354 19.7841C16.3343 19.769 16.3148 19.7536 16.2954 19.738C16.276 19.7223 16.2568 19.7065 16.2378 19.6904C16.2189 19.6743 16.2001 19.658 16.1815 19.6414C16.1629 19.6249 16.1445 19.6081 16.1263 19.5911C16.1082 19.5742 16.0902 19.5569 16.0724 19.5395C16.0546 19.5221 16.0371 19.5044 16.0197 19.4866C16.0024 19.4687 15.9853 19.4507 15.9684 19.4324C15.9515 19.4141 15.9348 19.3957 15.9183 19.377C15.9019 19.3583 15.8856 19.3394 15.8697 19.3204C15.8537 19.3013 15.8379 19.282 15.8224 19.2626C15.8068 19.2432 15.7915 19.2235 15.7765 19.2037C15.7614 19.1839 15.7466 19.1639 15.732 19.1437C15.7175 19.1235 15.7031 19.1032 15.689 19.0827C15.675 19.0621 15.6611 19.0414 15.6475 19.0205C15.634 18.9997 15.6206 18.9787 15.6076 18.9575C15.5945 18.9363 15.5817 18.915 15.5691 18.8934C15.5566 18.872 15.5443 18.8503 15.5323 18.8285C15.5202 18.8067 15.5085 18.7848 15.497 18.7627C15.4855 18.7406 15.4742 18.7184 15.4633 18.696C15.4523 18.6737 15.4416 18.6512 15.4312 18.6286C15.8434 18.4189 16.269 18.3166 16.7279 18.2769Z" fill="#6D944B"/>
<path d="M28.3754 14.8981C28.4711 14.8865 28.57 14.8827 28.6665 14.8811C29.4747 14.8677 30.3941 15.5083 30.9489 16.0435C30.3037 16.5659 29.6336 16.8224 28.8132 16.9004C28.766 16.9011 28.7185 16.8994 28.6712 16.8978C28.6422 16.8971 28.6132 16.8959 28.5842 16.8945C28.5553 16.893 28.5263 16.8911 28.4974 16.8889C28.4685 16.8867 28.4396 16.8841 28.4107 16.8812C28.3818 16.8783 28.353 16.875 28.3242 16.8713C28.2954 16.8677 28.2667 16.8637 28.238 16.8593C28.2093 16.8549 28.1807 16.8502 28.1521 16.8451C28.1236 16.8401 28.0951 16.8346 28.0666 16.8289C28.0382 16.8231 28.0098 16.8169 27.9816 16.8104C27.9533 16.8039 27.9251 16.7971 27.897 16.7899C27.8689 16.7827 27.8408 16.7752 27.8129 16.7673C27.785 16.7594 27.7572 16.7512 27.7294 16.7426C27.7017 16.734 27.6741 16.7251 27.6466 16.7158C27.6191 16.7065 27.5917 16.6969 27.5645 16.687C27.5372 16.677 27.5101 16.6667 27.4831 16.6561C27.4561 16.6455 27.4292 16.6345 27.4025 16.6232C27.3758 16.6119 27.3492 16.6003 27.3227 16.5883C27.2963 16.5763 27.27 16.5641 27.2439 16.5515C27.2177 16.5389 27.1917 16.5259 27.1659 16.5127C27.1401 16.4994 27.1145 16.4858 27.089 16.4719C27.0635 16.458 27.0382 16.4438 27.0131 16.4293C26.988 16.4147 26.963 16.3999 26.9383 16.3848C26.9135 16.3696 26.8889 16.3542 26.8646 16.3384C26.8402 16.3227 26.816 16.3066 26.7921 16.2902C26.7681 16.2739 26.7443 16.2572 26.7208 16.2402C26.6972 16.2233 26.6738 16.2061 26.6507 16.1885C26.6276 16.171 26.6047 16.1532 26.582 16.1351C26.5593 16.117 26.5368 16.0986 26.5146 16.0799C26.4924 16.0612 26.4704 16.0423 26.4486 16.0231C26.4269 16.0039 26.4054 15.9844 26.3841 15.9646C26.3628 15.9449 26.3418 15.9249 26.321 15.9046C26.3002 15.8844 26.2797 15.8638 26.2594 15.8431C26.2391 15.8223 26.2191 15.8012 26.1994 15.78C26.8138 15.3985 27.6701 15.0494 28.3754 14.8981Z" fill="#6D944B"/>
<path d="M18.7071 14.3027C19.5258 14.4415 20.1843 14.8623 20.6681 15.5386C21.1585 16.224 21.4802 17.2591 21.3323 18.1067C21.322 18.1658 21.3027 18.1667 21.256 18.1998C21.235 18.1921 21.2142 18.1838 21.1936 18.175C20.1827 17.7509 19.283 17.2742 18.8476 16.2032C18.6159 15.6335 18.4585 14.8915 18.7071 14.3027Z" fill="#6D944B"/>
<path d="M24.9824 11.9831C25.0242 11.9765 25.0438 11.9945 25.0808 12.0126C25.3176 12.3516 25.3766 13.3903 25.3245 13.8055C25.1771 14.981 24.3288 15.5959 23.4597 16.2756L23.348 16.3261L23.2779 16.2792C23.0565 15.8257 23.0649 14.411 23.1887 13.9148C23.4074 13.0374 24.2461 12.4248 24.9824 11.9831Z" fill="#97C646"/>
<path d="M23.2869 20.4783C23.5403 20.4738 23.7851 20.4765 24.0372 20.5049C24.8735 20.5353 25.7287 20.7211 26.3195 21.3529C26.7974 21.864 27.0431 22.5345 27.2881 23.1774C26.2566 23.1967 25.2435 23.1964 24.451 22.4358C24.3505 22.3393 24.2517 22.2251 24.177 22.1076C23.9101 21.9463 23.4403 20.8169 23.2869 20.4783Z" fill="#0B4B26"/>
<path d="M24.0742 7.70727C24.1101 7.7026 24.1384 7.71569 24.1724 7.72634C24.42 8.25039 24.4903 9.03111 24.402 9.60322C24.2304 10.7154 23.3688 11.3765 22.5191 12.0045L22.4456 12.0442C22.4172 12.0343 22.3891 12.0337 22.3734 12.0068C22.1168 11.5683 22.1292 10.1708 22.2685 9.65601C22.5205 8.72476 23.2774 8.16577 24.0742 7.70727Z" fill="#6D944B"/>
<path fill-rule="evenodd" clip-rule="evenodd" d="M21.5108 12.7981C21.3647 11.6872 21.1591 10.3242 20.2049 9.59693C19.9038 9.36745 19.5293 9.20232 19.1581 9.12955C19.1213 9.12235 19.0805 9.11934 19.0391 9.11628C18.9667 9.11093 18.8926 9.10546 18.8356 9.07728C19.227 8.94593 19.7432 9.12481 20.0982 9.30063C21.0649 9.77958 21.6301 10.7188 21.9615 11.7154C22.0489 11.9798 22.1236 12.2478 22.1857 12.5193C22.2477 12.7908 22.2969 13.0647 22.3331 13.3408C22.8035 12.4558 23.294 11.7872 24.2927 11.4803C24.5004 11.4184 24.71 11.3644 24.9218 11.3183C23.9694 11.7261 23.3832 12.0933 22.9824 13.0902C22.402 14.5334 22.5328 16.2746 22.6488 17.8208C22.6577 17.9392 22.6665 18.0565 22.6749 18.1725C22.6913 18.1454 22.7101 18.114 22.7309 18.0793L22.731 18.0791C22.9192 17.7649 23.2709 17.1776 23.4866 17.0242C23.7052 16.6969 24.0021 16.3851 24.2948 16.1227L24.3102 16.1025C24.4656 15.9006 24.6718 15.726 24.8709 15.5574C24.9201 15.5157 24.969 15.4743 25.0165 15.4331C25.0795 15.3782 25.1433 15.3233 25.2074 15.2681C26.1299 14.4736 27.1143 13.6258 26.9565 12.2873C26.9353 12.1076 26.9005 11.9273 26.866 11.748L26.8659 11.7477C26.8513 11.6719 26.8368 11.5962 26.8232 11.5208C27.1938 12.3991 27.2504 13.1864 26.8843 14.0865C26.8397 14.1974 26.79 14.3059 26.735 14.412C27.785 14.0542 28.8428 14.1707 29.8916 14.4497C29.6802 14.4559 29.4696 14.4346 29.2587 14.4133C29.0861 14.3958 28.9133 14.3783 28.7398 14.3759C27.5047 14.3588 26.4652 14.8866 25.6282 15.7774C25.2575 16.172 24.9451 16.6203 24.6354 17.0648C24.5978 17.1187 24.5603 17.1726 24.5228 17.2263C25.8452 16.7985 27.1296 16.7379 28.3958 17.3827C28.7119 17.5437 29.0044 17.7411 29.286 17.9562C29.1305 17.8926 28.9787 17.821 28.8268 17.7495C28.6445 17.6636 28.4622 17.5777 28.2737 17.5056C27.3104 17.1374 26.3364 17.1962 25.3909 17.5962C24.4681 17.9866 23.7714 18.6759 23.3981 19.6093C22.9497 20.7305 22.9648 21.9914 22.9795 23.2152C22.9839 23.5805 22.9882 23.9424 22.9802 24.2964C25.8621 23.5901 28.4208 23.66 31.0165 25.2379L31.0574 25.2628C31.3514 25.4413 31.6683 25.6337 31.9076 25.8772C31.9093 27.1469 31.8089 28.4369 31.3355 29.6297C29.6482 28.0741 27.6438 26.9011 25.2696 26.9971C23.9245 27.0515 22.6436 27.4506 21.3778 27.845C20.0627 28.2547 18.764 28.6593 17.4267 28.667C16.7912 28.6707 16.195 28.5713 15.5782 28.4277C18.0583 29.8013 20.1271 29.3853 22.1757 28.9733C24.779 28.4498 27.3495 27.9329 30.6897 31.1038C29.135 33.514 27.1863 35.1622 24.3289 35.7754C24.2505 35.7926 24.1719 35.8088 24.093 35.824C24.0142 35.8392 23.9352 35.8535 23.8561 35.8667C23.7769 35.88 23.6975 35.8923 23.6181 35.9036C23.5386 35.9149 23.459 35.9252 23.3792 35.9345C23.2995 35.9438 23.2197 35.9522 23.1397 35.9595C23.0598 35.9668 22.9798 35.9732 22.8996 35.9785C22.8196 35.9839 22.7394 35.9882 22.6592 35.9916C22.579 35.9949 22.4987 35.9973 22.4185 35.9987C22.3382 36 22.2579 36.0004 22.1777 35.9998C22.0974 35.9991 22.0171 35.9975 21.9369 35.9949C21.8566 35.9923 21.7765 35.9886 21.6963 35.984C21.6162 35.9794 21.5361 35.9738 21.4561 35.9672C21.3761 35.9606 21.2962 35.953 21.2163 35.9444C21.1365 35.9358 21.0568 35.9262 20.9772 35.9157C20.8977 35.9051 20.8182 35.8935 20.7389 35.881C20.6596 35.8684 20.5805 35.8549 20.5016 35.8404C20.4226 35.8259 20.3438 35.8104 20.2652 35.794C20.1867 35.7775 20.1083 35.7601 20.0301 35.7417C19.952 35.7232 19.8741 35.7039 19.7964 35.6835C19.7188 35.6632 19.6414 35.6419 19.5642 35.6196C19.4871 35.5973 19.4103 35.5741 19.3337 35.5499C19.2572 35.5257 19.1809 35.5006 19.105 35.4745C19.029 35.4485 18.9534 35.4215 18.8782 35.3935C18.8029 35.3656 18.728 35.3367 18.6535 35.3069C18.5789 35.2771 18.5047 35.2463 18.4309 35.2147C18.3572 35.183 18.2838 35.1505 18.2108 35.117C18.1378 35.0835 18.0653 35.0491 17.9931 35.0139C17.921 34.9786 17.8493 34.9424 17.7781 34.9054C17.7068 34.8683 17.6361 34.8304 17.5658 34.7915C17.4955 34.7527 17.4257 34.713 17.3564 34.6725C17.2871 34.632 17.2183 34.5905 17.15 34.5483C17.0817 34.506 17.014 34.4629 16.9468 34.419C16.3167 34.0103 15.6733 33.481 15.1705 32.9207C16.3184 32.9778 17.4364 32.8114 18.5425 32.5113C19.0145 32.3833 19.4878 32.2338 19.9635 32.0835C21.2785 31.6682 22.6116 31.2472 23.9854 31.2573C24.571 31.2616 25.1271 31.3685 25.6943 31.5026C25.2259 31.2097 24.6635 30.995 24.1366 30.8387C22.3818 30.3183 20.7663 30.6339 19.143 30.951C17.8533 31.203 16.5586 31.4559 15.1851 31.2913C14.7075 31.2341 14.1788 31.1395 13.7429 30.9275C12.7848 29.0854 12.3614 26.9463 12.708 24.884C14.3386 25.9732 16.2017 26.0431 18.0652 25.6702C19.1876 25.4456 20.3801 25.116 21.4517 24.7146C21.5003 23.7813 21.4447 22.6893 20.7859 21.9552C20.2482 21.3561 19.508 21.2152 18.7415 21.1495C17.7929 21.2101 17.1092 21.528 16.2902 21.98C16.3027 21.9654 16.3152 21.9507 16.3284 21.9367C16.8776 21.3489 17.8884 20.9575 18.6754 20.869C19.435 20.6987 20.4264 20.919 21.1337 21.2009C20.306 19.6155 19.3968 18.0621 17.7565 17.203C16.6968 16.7781 16.0628 16.8699 15.1483 17.0023C14.9589 17.0297 14.7575 17.0588 14.5378 17.0855C15.5832 16.5533 16.9363 16.5741 18.042 16.8844L18.0392 16.8519C18.0118 16.5432 17.9715 16.2987 17.9363 16.0854C17.8358 15.4752 17.7773 15.1199 18.1802 14.2467C18.1645 14.3614 18.1476 14.4727 18.131 14.5813C18.0123 15.3622 17.915 16.0017 18.466 16.7227C18.7346 17.0742 19.1005 17.361 19.4638 17.6459C19.6935 17.826 19.9222 18.0053 20.1247 18.1996C20.605 18.6606 21.0115 19.155 21.4241 19.6567C21.5772 19.8429 21.7312 20.0301 21.8901 20.2171C21.8502 19.8464 21.8432 19.4695 21.8362 19.0941L21.8362 19.0939C21.8332 18.9326 21.8302 18.7715 21.8246 18.6113C21.7858 17.7288 21.753 16.8461 21.7261 15.9632C21.7212 15.8156 21.7203 15.6595 21.7193 15.4991C21.7159 14.9413 21.7122 14.3312 21.5401 13.844C21.3418 13.2824 20.8716 12.7443 20.4131 12.3768C19.8068 11.8909 19.2351 11.7872 18.4768 11.7899C18.4226 11.7901 18.3682 11.7911 18.3137 11.7921C18.138 11.7953 17.961 11.7986 17.7879 11.7752C18.7323 11.5011 19.6655 11.542 20.5371 12.0243C20.9109 12.2311 21.2191 12.4879 21.5108 12.7981Z" fill="#0B4B26"/>
</g>
<defs>
<filter id="filter0_d_3059_28271" x="0" y="0" width="44" height="44" filterUnits="userSpaceOnUse" color-interpolation-filters="sRGB">
<feFlood flood-opacity="0" result="BackgroundImageFix"/>
<feColorMatrix in="SourceAlpha" type="matrix" values="0 0 0 0 0 0 0 0 0 0 0 0 0 0 0 0 0 0 127 0" result="hardAlpha"/>
<feOffset dy="1"/>
<feGaussianBlur stdDeviation="1"/>
<feComposite in2="hardAlpha" operator="out"/>
<feColorMatrix type="matrix" values="0 0 0 0 0.0392157 0 0 0 0 0.0509804 0 0 0 0 0.0784314 0 0 0 0.03 0"/>
<feBlend mode="normal" in2="BackgroundImageFix" result="effect1_dropShadow_3059_28271"/>
<feBlend mode="normal" in="SourceGraphic" in2="effect1_dropShadow_3059_28271" result="shape"/>
</filter>
</defs>
</svg>
