<svg width="152" height="152" viewBox="0 0 152 152" fill="none" xmlns="http://www.w3.org/2000/svg">
<g filter="url(#filter0_d_388_4682)">
<path d="M6 75C6 36.3401 37.3401 5 76 5C114.66 5 146 36.3401 146 75C146 113.66 114.66 145 76 145C37.3401 145 6 113.66 6 75Z" fill="#A2DC3F" fill-opacity="0.1" shape-rendering="crispEdges"/>
<path d="M76 3C36.2355 3 4 35.2355 4 75C4 114.765 36.2355 147 76 147C115.765 147 148 114.765 148 75C148 35.2355 115.765 3 76 3Z" stroke="#A2DC3F" stroke-opacity="0.16" stroke-width="4" shape-rendering="crispEdges"/>
<path d="M99.7293 116.302C98.7556 118.692 97.2387 120.823 95.2983 122.525C94.5437 123.147 93.7135 123.671 92.8273 124.086C90.2513 125.486 85.5543 125.64 83.6923 124.877C81.1443 123.82 80.6753 123.743 79.3663 122.546C78.4374 121.785 77.6051 120.912 76.8883 119.949C76.5033 119.214 76.4193 119.515 75.9645 118.514C75.3485 117.156 74.3476 115.952 74.3476 112.137C74.1096 110.037 75.2366 105.501 78.0153 103.037C78.3163 102.771 80.0103 101.322 80.1153 101.245C82.3042 99.6379 84.9768 98.8273 87.6893 98.9491C88.1443 98.9491 89.3413 99.1661 89.6843 99.1731C91.8823 99.1731 94.6403 101.189 96.1593 102.442C98.6513 104.507 99.3793 107.23 99.9743 108.497C100.891 110.457 100.429 114.468 99.7293 116.302Z" fill="#A2DC3F" fill-opacity="0.24"/>
<path d="M84.7913 14.0038C84.7913 14.2068 84.7073 14.5638 84.4833 14.6198C84.2593 14.6758 84.5393 14.2068 83.7833 13.5908C83.6083 13.4368 84.6373 12.9468 84.7913 14.0038Z" fill="white"/>
<path d="M77.9873 16.5168C77.0913 16.1528 77.2873 15.4738 77.9873 14.9698C78.6873 14.4658 79.7093 13.7448 79.7723 14.0528C79.8703 14.4658 80.5283 15.1448 80.9693 15.1308C82.2993 15.0678 82.5863 13.4928 82.8313 13.5698C85.7293 14.9068 81.1093 17.7838 77.9873 16.5168Z" fill="white"/>
<path d="M81.2283 12.4638C81.2913 12.0018 80.6333 11.8408 80.8293 12.7648C80.6123 14.2698 80.6543 14.1648 80.5983 14.2698C79.8143 13.8568 80.2553 9.80383 81.5153 9.08983C82.0263 8.80283 82.9153 9.78981 82.7893 10.9868C82.6913 12.8768 81.9003 14.2768 81.9493 13.7868C82.0487 13.2915 82.0935 12.7869 82.0823 12.2818C81.9843 12.0438 81.7253 12.0718 81.6623 12.5968C81.6623 12.8908 81.4803 13.5068 81.4313 13.9058C81.4313 14.1228 81.3543 14.4028 81.2073 14.3748C81.0393 14.5148 81.1863 13.4928 81.2283 12.4638Z" fill="white"/>
<path d="M79.6883 12.1838C79.5763 13.2618 79.8423 13.5838 79.3873 13.1148C78.6873 12.4148 78.6873 11.8128 78.3163 11.8618C78.2113 11.8618 78.1973 12.0648 78.2043 12.1348C78.2953 12.8348 78.5543 12.8768 78.5193 13.1288C78.5893 13.5978 77.4413 12.5688 77.2103 11.2598C77.0423 10.3498 77.7493 9.40483 78.3723 9.56583C80.1783 10.0208 79.8073 11.0148 79.6883 12.1838Z" fill="white"/>
<path d="M114.849 100.503C114.912 103.303 114.205 103.205 111.566 104.381C110.565 104.934 109.512 105.389 108.423 105.739C104.727 107.489 105.42 106.873 104.608 107.356C103.495 107.899 102.347 108.366 101.171 108.756C100.562 108.987 100.212 101.952 91.4763 98.7251C87.2063 97.1501 79.1493 98.9141 75.4884 104.787C74.6837 106.253 74.1122 107.835 73.7945 109.477C73.4515 110.877 73.5634 114.839 74.2494 116.547C75.4114 119.466 75.6004 119.347 75.3555 119.459C74.9914 119.634 72.8985 120.159 72.2475 120.565C71.8065 120.852 62.8955 124.163 62.5945 124.219C61.9422 124.554 61.2686 124.846 60.5784 125.094C59.6576 125.359 58.7589 125.696 57.8905 126.102C57.8905 126.102 55.0484 127.362 54.2854 127.565C52.1364 128.139 51.3454 126.97 50.2814 124.947C49.1754 123.183 30.9684 78.6631 32.2634 76.8361C32.4104 76.6331 32.3264 76.3811 32.4454 76.1361C33.7614 73.6228 58.7375 65.0128 68.4255 59.5738C68.5588 59.4947 68.7061 59.4424 68.8594 59.4198C70.4414 58.7198 70.2034 58.6218 70.7144 59.3288C71.8274 60.8548 76.4963 64.6068 78.9393 65.2508C79.4923 65.3978 79.3453 64.7608 79.2473 64.6698C78.7853 64.2428 76.5523 63.8648 72.8914 60.5328C72.2344 59.9985 71.6486 59.3822 71.1484 58.6988C70.9804 58.4328 71.0995 58.5868 72.0515 58.1668C72.6675 57.8938 73.3325 57.7748 73.9555 57.5368C73.9555 57.5368 78.0293 55.6258 80.5283 54.8418C81.2843 54.6038 92.9323 49.6898 92.9743 49.7108C93.0163 49.7318 94.8783 49.6268 95.4453 51.1528C96.5513 53.4348 97.7623 58.7128 98.0493 59.2448C98.1753 59.4758 97.9163 59.4758 96.9153 59.9448C96.8453 59.9448 70.9385 70.9138 69.7835 71.1448C68.3835 71.4668 67.8935 70.5428 67.3545 68.9888C66.8855 67.6378 66.8434 68.2888 66.3744 67.0638C65.7514 65.4538 64.0504 65.0478 62.5524 65.7058C41.9724 74.7078 40.9854 73.4058 42.7354 81.0361C43.5684 84.6691 49.1965 108.336 51.9685 122.028C51.9789 122.09 52.003 122.15 52.0391 122.202C52.0753 122.254 52.1224 122.297 52.1774 122.328C52.2323 122.36 52.2937 122.379 52.3568 122.384C52.4199 122.389 52.4833 122.38 52.5424 122.357C53.2424 121.951 44.7794 86.5241 44.5484 85.4951C42.7774 77.7321 42.5814 77.2211 43.1484 75.9681C44.3664 73.3218 60.0675 67.8828 61.9085 66.7558C62.6245 66.4093 63.4091 66.2275 64.2045 66.2238C66.0175 66.5458 66.1015 68.6178 66.6125 69.2898C67.1235 69.9618 67.4595 71.7398 68.8805 71.9008C69.9235 72.0198 70.5044 71.5788 71.6314 71.1378C74.9004 69.8638 98.6513 60.0848 100.905 59.0418C105.105 57.1028 106.092 57.5438 107.1 61.9118C107.394 63.1578 109.48 69.8918 112.7 89.9121C112.791 90.4021 114.828 99.6491 114.849 100.503ZM111.825 101.084C112.063 100.972 112.413 100.454 111.734 100.44C108.332 102.183 100.856 104.591 100.898 105.011C100.904 105.059 100.919 105.105 100.944 105.146C100.969 105.187 101.003 105.223 101.043 105.249C101.083 105.276 101.129 105.293 101.176 105.3C101.224 105.308 101.272 105.304 101.318 105.291C102.291 104.962 111.825 101.287 111.825 101.084ZM72.7234 116.484C72.7466 116.436 72.7538 116.381 72.744 116.329C72.7342 116.276 72.7078 116.228 72.6688 116.192C72.6298 116.154 72.5802 116.131 72.5271 116.125C72.474 116.118 72.4202 116.129 72.3734 116.155C71.8204 116.456 72.0305 116.092 65.2475 119.032C63.2245 119.9 63.3855 119.508 61.3975 120.432C58.7655 121.629 58.5975 121.398 57.3375 122C56.0775 122.602 55.8394 122.378 55.6714 122.826C55.6605 122.853 55.6605 122.883 55.6714 122.91C55.8394 122.952 55.9655 123.099 56.1615 123.099C57.9465 122.518 67.5154 118.899 70.2314 117.681C72.1354 116.792 72.5554 117.121 72.7234 116.491V116.484Z" fill="white"/>
<path d="M91.9173 114.965C91.7843 112.263 90.6923 106.565 89.1173 104.913C87.8503 103.583 85.6173 103.996 83.9793 104.822C83.0063 105.319 82.0823 105.522 82.0473 108.455C82.195 110.809 82.6108 113.139 83.2863 115.399C83.9303 117.058 84.1543 120.166 87.3953 119.963C89.8593 119.508 91.3573 119.004 91.6793 116.96C91.8557 116.31 91.9355 115.638 91.9173 114.965ZM86.6953 106.488C87.5773 107.713 88.5083 112.606 88.8513 116.288C88.9213 117.037 88.9213 117.478 88.2353 117.751C87.9413 117.863 87.5913 117.856 87.5353 117.751C87.0544 117.05 86.6925 116.274 86.4643 115.455C85.8322 113.108 85.3506 110.723 85.0223 108.315C84.8683 106.81 85.0223 106.712 85.3513 106.432C85.555 106.302 85.7937 106.238 86.0345 106.251C86.276 106.263 86.507 106.351 86.6953 106.502V106.488Z" fill="white"/>
<path d="M111.826 101.091C109.6 102.176 101.935 105.081 101.326 105.291C101.28 105.302 101.232 105.304 101.185 105.295C101.138 105.287 101.094 105.269 101.054 105.243C101.015 105.217 100.982 105.183 100.956 105.143C100.931 105.102 100.913 105.057 100.906 105.01C100.871 104.534 108.081 102.302 111.742 100.44C112.393 100.454 112.092 100.972 111.826 101.091Z" fill="#4C6F1C"/>
<path d="M84.456 14.6197C84.911 14.5077 84.841 13.4717 84.337 13.3667C84.001 13.2897 83.679 13.4927 83.784 13.5907C84.484 14.1857 84.211 14.6757 84.456 14.6197ZM85.156 14.3257C85.065 14.5217 84.995 15.0817 84.302 15.1237C84.2579 15.1262 84.2152 15.141 84.1788 15.1664C84.1424 15.1919 84.1137 15.2269 84.0962 15.2676C84.0787 15.3084 84.0731 15.3532 84.0801 15.397C84.0864 15.4408 84.1053 15.482 84.134 15.5157C84.617 15.7817 84.771 16.8737 84.617 17.2867C84.463 17.6997 83.868 17.4547 83.917 17.0977C83.9555 16.7609 83.8869 16.4204 83.721 16.1247C83.581 15.9217 83.588 16.0127 82.888 16.5097C82.643 16.6847 83.014 16.6217 83.014 17.3287C83.0567 17.8174 82.9923 18.3097 82.825 18.7708C82.615 19.1347 82.188 18.9107 82.209 18.7148C82.209 18.3018 82.489 16.8667 82.048 16.9647C80.648 17.2797 81.586 17.0697 81.201 18.1897C80.977 18.8547 80.501 19.8697 79.976 19.3867C79.675 19.0997 81.432 17.3707 80.109 17.3637C79.017 17.3637 80.011 17.6507 78.779 18.8827C78.7279 18.9418 78.6558 18.979 78.5781 18.9871C78.5004 18.9952 78.4227 18.9735 78.3604 18.9263C78.2981 18.8792 78.2561 18.8101 78.2428 18.7332C78.2295 18.6562 78.2463 18.5771 78.289 18.5117C78.4878 18.2462 78.6663 17.9653 78.821 17.6718C79.031 17.1888 78.345 17.4337 77.75 17.0487C77.008 16.5797 76.945 16.5377 76.84 16.0827C76.735 15.6277 77.05 15.2077 77.337 14.8577C77.771 14.3257 78.737 14.0457 78.485 13.8637C78.38 13.7867 77.68 13.7377 77.015 12.3447C76.8232 12.0604 76.6979 11.7367 76.6482 11.3974C76.5985 11.0582 76.6258 10.7121 76.728 10.3848C77.022 9.50276 77.729 8.77478 78.485 9.04778C79.1402 9.19041 79.7149 9.58188 80.088 10.1398C80.312 9.43978 80.893 8.45276 81.6 8.50176C81.8401 8.49076 82.0802 8.53632 82.3 8.63476C84.575 10.0348 82.125 13.8497 83.518 13.0657C83.7056 12.9234 83.9352 12.8464 84.1711 12.8467C84.4063 12.8471 84.6359 12.9246 84.8228 13.0676C85.0104 13.2105 85.1462 13.4109 85.2085 13.6382C85.2715 13.8654 85.2575 14.1069 85.17 14.3257H85.156ZM80.823 12.7647C80.627 11.8408 81.285 12.0087 81.222 12.4707C81.18 13.5067 81.033 14.5077 81.222 14.4167C81.369 14.4167 81.418 14.1577 81.446 13.9477C81.495 13.5487 81.677 12.9327 81.67 12.6387C81.733 12.1137 81.999 12.0857 82.097 12.3237C82.104 12.8287 82.0599 13.3329 81.964 13.8287C81.887 14.3187 82.699 12.9677 82.797 11.0287C82.958 9.77574 82.02 8.85173 81.523 9.13873C80.263 9.83873 79.836 13.9197 80.613 14.3117C80.662 14.1717 80.837 12.6597 80.837 12.7647H80.823ZM82.839 13.5697C82.601 13.4927 82.3 15.0677 80.977 15.1307C80.543 15.1307 79.878 14.4307 79.78 14.0527C79.738 13.8427 79.437 14.0527 79.157 14.2137C78.457 14.6197 77.414 15.2427 77.372 15.8027C77.295 16.6287 79.619 17.2027 81.796 16.4187C83.616 15.7537 84.582 14.3747 82.853 13.5697H82.839ZM78.352 9.57278C77.736 9.41878 77.029 10.3568 77.19 11.2598C77.421 12.5757 78.59 13.5977 78.499 13.1357C78.499 12.8837 78.275 12.8137 78.184 12.1417C78.184 12.0647 78.184 11.8898 78.296 11.8688C78.66 11.8198 78.632 12.4217 79.367 13.1217C79.822 13.5557 79.549 13.2687 79.668 12.1907C79.892 10.7208 79.976 9.97178 78.366 9.57278H78.352Z" fill="#4C6F1C"/>
<path d="M72.3739 116.161C72.4206 116.136 72.4744 116.125 72.5275 116.132C72.5806 116.138 72.6302 116.161 72.6692 116.199C72.7082 116.235 72.7346 116.283 72.7444 116.336C72.7542 116.388 72.747 116.443 72.7239 116.49C72.5699 117.064 56.8479 122.86 56.1759 123.07C55.9799 123.07 55.8538 122.93 55.6858 122.888C55.6858 122.888 55.6508 122.819 55.6858 122.798C55.8538 122.357 56.0079 122.615 57.3519 121.978C58.6959 121.341 58.7519 121.6 61.4119 120.41C63.3999 119.507 63.2389 119.899 65.2619 119.01C72.0309 116.105 71.8209 116.462 72.3739 116.161Z" fill="#4C6F1C"/>
<path d="M69.1328 18.6867C69.1748 18.8127 68.9859 19.0297 68.8459 19.0297C68.8459 19.0297 68.7898 18.9807 68.7898 18.9667C68.9298 18.7427 68.2089 18.3927 67.8519 18.8407C67.0119 19.8767 67.1519 21.2277 67.6279 22.4527C67.7189 22.6907 68.2859 21.8647 69.6509 20.8567C70.5609 20.1567 75.3209 16.6917 75.3419 17.8327C75.3419 18.5327 74.0399 18.3157 69.3989 22.0327C68.1319 23.0547 68.3278 23.0547 68.1178 23.1527C67.7048 23.2997 68.8669 24.3917 69.4479 24.6017C70.0289 24.8117 71.2609 24.7837 71.5479 24.1607C71.9469 23.3557 72.3809 23.9717 72.2479 24.2657C71.4009 26.0437 68.5868 25.7007 67.5788 23.8597C67.4458 23.6077 67.4879 23.6007 65.5559 25.5887C64.9259 26.2467 64.9958 26.2887 65.1428 26.4917C66.1298 28.0247 67.4109 27.3667 67.3339 27.9547C67.3339 28.1927 67.2358 28.2907 67.0468 28.2767C63.5468 28.0737 65.6959 25.0147 63.2809 28.6337C57.9749 36.5717 57.9889 47.2187 67.1939 51.2227C67.9639 51.5587 67.5649 51.2927 67.6839 49.9137C67.7684 47.6581 68.3771 45.4532 69.4619 43.4737C70.0886 42.3631 70.8173 41.3131 71.6388 40.3377C72.2721 39.5238 73.0625 38.8454 73.9629 38.3427C78.023 35.6267 84.995 38.1397 84.358 44.5657C84.2306 45.4158 84.0094 46.249 83.7 47.0507C83.105 47.6387 83.427 47.9817 81.754 49.4797C79.71 51.3067 77.918 51.7197 74.4529 52.4267C73.7529 52.5667 69.8258 52.7207 68.6358 52.3847C68.4818 52.3427 68.4678 52.3847 68.4818 52.5107C68.6181 54.1775 69.1824 55.7809 70.1199 57.1657C70.5399 57.8657 70.3299 58.1667 71.8279 57.5017C71.8979 57.5017 92.716 49.1017 92.793 49.0597C96.993 48.2197 96.993 54.5967 98.75 58.7337C98.953 59.2097 98.526 59.2307 102.285 57.6347C102.885 57.3231 103.548 57.1531 104.224 57.1377C104.434 57.1377 104.616 57.0607 104.847 57.1377C107.647 58.0057 107.647 61.5897 107.962 62.3597C109.068 65.1597 112.799 87.1751 114.164 93.5171C116.264 103.226 116.264 103.1 112.288 104.85C106.205 107.51 108.088 106.845 102.586 109.05C100.745 109.75 101.228 108.98 101.312 111.248C101.732 123.148 88.299 130.596 78.646 123.19C78.0342 122.632 77.4567 122.039 76.917 121.411C75.3909 119.927 76.917 119.773 74.1169 120.662C71.7019 121.432 72.8078 121.425 66.0108 123.686C66.0108 123.686 61.1109 125.723 60.1379 126.038C59.4707 126.194 58.8245 126.43 58.2129 126.738C57.3029 127.221 56.9389 127.145 55.2729 127.985C50.6389 130.309 49.2458 125.367 46.3968 118.024C46.3968 117.73 32.6909 84.3674 31.6409 78.7604C31.0809 75.7994 32.1449 74.8617 34.8189 73.6507C37.8359 72.2507 40.2579 70.9697 59.3189 63.0247C68.7059 59.1187 64.5409 60.5537 69.7349 58.2997C70.2249 58.0897 68.0689 56.3887 67.8169 52.4967C67.7679 51.7057 55.9168 49.5567 59.6968 34.6117C61.0968 29.0887 64.3868 26.6387 64.0578 25.8407C63.4838 24.4407 63.7499 22.9287 64.5479 22.9987C64.8839 22.9987 64.9818 23.5167 64.7998 23.5797C64.7998 23.5797 64.5268 23.5797 64.4638 23.8037C64.2608 24.4687 64.4638 25.6797 64.7578 25.3787C65.4353 24.5905 66.1726 23.8557 66.9629 23.1807C67.3479 22.8587 66.4658 22.4037 66.5568 20.4647C66.7038 17.8677 68.6918 17.3147 69.1328 18.6867ZM111.567 104.401C114.213 103.232 114.913 103.296 114.85 100.524C114.85 99.6701 112.813 90.3874 112.75 89.9604C109.341 69.9617 107.402 63.2067 107.15 61.9607C106.149 57.5857 105.148 57.1517 100.955 59.0907C98.701 60.1337 74.9499 69.9127 71.6809 71.1867C70.5539 71.6277 69.9729 72.0687 68.9299 71.9497C67.5299 71.7887 67.2429 70.1087 66.6619 69.3387C66.0809 68.5687 66.0668 66.5947 64.2538 66.2727C63.4584 66.2767 62.6739 66.4584 61.9578 66.8047C60.1168 67.9317 44.4229 73.3707 43.1979 76.0171C42.6239 77.2701 42.8409 77.7804 44.5979 85.5434C44.8289 86.5654 53.2919 121.999 52.5919 122.405C51.7799 122.713 52.5919 123.882 42.7919 81.1054C41.0419 73.4477 42.0289 74.8057 62.6089 65.7757C64.1139 65.0757 65.8079 65.5307 66.4309 67.1337C66.8999 68.3447 66.9418 67.7007 67.4108 69.0587C67.9498 70.6057 68.4048 71.5367 69.8398 71.2147C71.0578 70.9347 96.902 60.0147 96.972 60.0147C97.973 59.5807 98.232 59.5807 98.106 59.3147C97.875 58.8737 96.524 53.3437 95.502 51.2227C94.942 49.7107 93.115 49.8227 93.031 49.7807C92.947 49.7387 81.341 54.6807 80.585 54.9117C78.086 55.7027 74.0399 57.5997 74.0119 57.6067C73.3889 57.8447 72.7238 57.9637 72.1078 58.2367C71.1558 58.6567 71.0369 58.5097 71.2049 58.7687C71.7051 59.4522 72.2908 60.0685 72.9479 60.6027C76.609 63.9417 78.835 64.3267 79.304 64.7397C79.402 64.8237 79.549 65.4397 78.996 65.3207C76.553 64.6767 71.8839 60.9247 70.7709 59.3987C70.2599 58.6987 70.4979 58.7897 68.9159 59.4897C68.7626 59.5124 68.6151 59.5646 68.4818 59.6437C58.7308 65.1177 33.8109 73.6997 32.5019 76.2054C30.9339 79.1874 49.5399 123.721 50.3379 124.988C51.4019 127.011 52.1929 128.181 54.3419 127.607C55.1049 127.404 57.9328 126.15 57.9468 126.143C58.8152 125.738 59.714 125.401 60.6349 125.135C61.3251 124.888 61.9985 124.596 62.6509 124.26C62.9379 124.211 71.8628 120.894 72.3038 120.607C72.9548 120.166 75.0479 119.669 75.4119 119.501C75.6569 119.389 75.4539 119.5 74.3059 116.588C73.2069 113.788 73.4099 108.251 75.5449 104.828C78.926 99.4034 86.885 97.0381 91.533 98.7671C100.339 102.05 100.577 109.043 101.228 108.798C102.403 108.405 103.551 107.938 104.665 107.398C105.136 107.168 105.631 106.991 106.142 106.873C106.702 106.558 106.569 106.585 111.567 104.401ZM100.521 111.702C100.465 111.002 100.416 109.918 100.416 109.918C100.416 109.918 99.107 105.325 97.28 103.554C96.58 102.854 96.398 102.651 96.174 102.469C94.662 101.209 91.897 99.2144 89.699 99.2011C89.356 99.2011 88.159 98.9834 87.704 98.9694C84.9894 98.8434 82.3147 99.6568 80.13 101.273C80.025 101.35 78.324 102.799 78.03 103.065C75.2299 105.529 74.1239 110.065 74.3619 112.165C74.3619 115.868 75.3208 117.065 75.9858 118.542C76.434 119.536 76.525 119.241 76.91 119.977C77.624 120.94 78.4535 121.812 79.381 122.574C80.69 123.764 81.159 123.848 83.707 124.898C85.569 125.668 90.273 125.527 92.807 124.113C93.6932 123.697 94.5255 123.173 95.285 122.552C97.2184 120.845 98.7304 118.713 99.702 116.323C99.73 116.239 100.633 113.264 100.521 111.682V111.702ZM83.63 43.1027C82.86 37.9437 77.673 36.8027 73.9489 39.2387C72.0869 40.4497 69.2869 43.9987 68.5099 48.5487C68.3451 49.5058 68.3122 50.4808 68.4119 51.4467C68.3279 52.6017 85.03 52.4757 83.63 43.0817V43.1027Z" fill="#4C6F1C"/>
<path d="M89.538 116.848C89.321 113.586 88.355 107.881 87.249 106.425C86.9438 106.133 86.5455 105.958 86.1241 105.931C85.7027 105.904 85.2855 106.027 84.946 106.278C84.288 106.859 84.407 107.363 84.582 109.078C84.757 110.793 85.982 118.016 87.592 118.296C87.8153 118.333 88.0435 118.324 88.2633 118.271C88.4838 118.217 88.6903 118.12 88.8723 117.985C89.0536 117.85 89.2062 117.68 89.3203 117.484C89.4351 117.288 89.5086 117.072 89.538 116.848ZM88.691 117.219C88.306 117.639 87.655 117.688 87.55 117.534C86.9683 116.692 86.5679 115.739 86.374 114.734C85.891 112.844 85.5053 110.93 85.219 109.001C85.03 107.146 85.149 107.125 85.492 106.824C85.674 106.685 85.8966 106.611 86.1255 106.611C86.3537 106.611 86.5763 106.685 86.759 106.824C87.893 108.427 89.118 116.575 88.691 117.219ZM90.182 105.802C90.0147 105.362 89.7466 104.968 89.3987 104.652C89.0508 104.336 88.6329 104.106 88.18 103.982C86.885 103.436 83.637 104.304 82.699 105.228C81.558 106.362 81.53 108.237 81.803 109.805C82.412 113.186 83.371 120.305 86.836 120.305C92.765 119.801 92.779 116.953 91.736 111.458C91.4735 109.511 90.9513 107.609 90.182 105.802ZM86.794 119.654C84.127 119.654 83.042 113.172 82.594 110.554C82.321 108.993 82.062 106.851 83.196 105.745C83.973 104.989 87.466 103.807 88.929 105.179C89.321 105.179 90.518 108.098 91.134 111.479C92.079 116.798 92.17 119.171 86.794 119.654Z" fill="#4C6F1C"/>
</g>
<defs>
<filter id="filter0_d_388_4682" x="0" y="0" width="152" height="152" filterUnits="userSpaceOnUse" color-interpolation-filters="sRGB">
<feFlood flood-opacity="0" result="BackgroundImageFix"/>
<feColorMatrix in="SourceAlpha" type="matrix" values="0 0 0 0 0 0 0 0 0 0 0 0 0 0 0 0 0 0 127 0" result="hardAlpha"/>
<feOffset dy="1"/>
<feGaussianBlur stdDeviation="1"/>
<feComposite in2="hardAlpha" operator="out"/>
<feColorMatrix type="matrix" values="0 0 0 0 0.0392157 0 0 0 0 0.0509804 0 0 0 0 0.0784314 0 0 0 0.03 0"/>
<feBlend mode="normal" in2="BackgroundImageFix" result="effect1_dropShadow_388_4682"/>
<feBlend mode="normal" in="SourceGraphic" in2="effect1_dropShadow_388_4682" result="shape"/>
</filter>
</defs>
</svg>
