<svg width="32" height="24" viewBox="0 0 32 24" fill="none" xmlns="http://www.w3.org/2000/svg">
<path d="M24.8485 7.21293C25.1602 5.68888 24.8485 4.67285 23.7576 3.73497C22.5629 2.67986 20.3813 2.25 17.5762 2.25H9.52484C8.95345 2.25 8.48595 2.56263 8.38206 2.99248L5.00566 19.0145C4.95372 19.3272 5.26539 19.6007 5.68094 19.6007H10.6676L10.304 21.242C10.2521 21.5155 10.5118 21.75 10.9273 21.75H15.1349C15.6543 21.75 16.0699 21.4765 16.1218 21.1247L17.0049 16.9825C17.0568 16.6308 17.5243 16.3572 17.9918 16.3572H18.6151C22.6668 16.3572 25.8874 15.1067 26.8224 11.5115C27.186 10.0266 27.0302 8.73697 25.9913 7.87725C25.6796 7.60371 25.316 7.40832 24.8485 7.21293Z" fill="#009CDE"/>
<path d="M24.8485 7.21293C25.1601 5.68888 24.8485 4.67285 23.7576 3.73497C22.5629 2.67986 20.3813 2.25 17.5762 2.25H9.52484C8.95345 2.25 8.48595 2.56263 8.38206 2.99248L5.00566 19.0145C4.95372 19.3272 5.26539 19.6007 5.68094 19.6007H10.6676L11.8623 13.8171C11.9662 13.3873 12.4337 13.0746 13.0051 13.0746H15.3946C20.0696 13.0746 23.7057 11.6678 24.7446 7.52555C24.7965 7.44739 24.7965 7.33016 24.8485 7.21293Z" fill="#012169"/>
<path d="M13.2648 7.252C13.3168 6.97846 13.7843 6.62675 14.2518 6.62675H20.589C21.3163 6.62675 22.0435 6.66583 22.6668 6.74399C23.2382 6.82214 24.2771 7.01753 24.7965 7.252C25.1082 5.72796 24.7965 4.71192 23.7057 3.77405C22.5629 2.67986 20.3813 2.25 17.5762 2.25H9.52484C8.95345 2.25 8.48595 2.56263 8.38206 2.99248L5.00566 19.0145C4.95372 19.3272 5.26539 19.6007 5.68094 19.6007H10.6676L13.2648 7.252Z" fill="#003087"/>
</svg>
