<svg width="274" height="81" viewBox="0 0 274 81" fill="none" xmlns="http://www.w3.org/2000/svg">
<path opacity="0.5" d="M0.5 -53.3333V-80H27.1667M0.5 -53.3333V-26.6667M0.5 -53.3333H27.1667M0.5 -26.6667V-3.57628e-06M0.5 -26.6667H27.1667M0.5 -3.57628e-06V26.6667M0.5 -3.57628e-06H27.1667M0.5 26.6667V53.3333M0.5 26.6667H27.1667M0.5 53.3333V80H27.1667M0.5 53.3333H27.1667M27.1667 -80V-53.3333M27.1667 -80H53.8333M27.1667 -53.3333V-26.6667M27.1667 -53.3333H53.8333M27.1667 -26.6667V-3.57628e-06M27.1667 -26.6667H53.8333M27.1667 -3.57628e-06V26.6667M27.1667 -3.57628e-06H53.8333M27.1667 26.6667V53.3333M27.1667 26.6667H53.8333M27.1667 53.3333V80M27.1667 53.3333H53.8333M27.1667 80H53.8333M53.8333 -80V-53.3333M53.8333 -80H80.5M53.8333 -53.3333V-26.6667M53.8333 -53.3333H80.5M53.8333 -26.6667V-3.57628e-06M53.8333 -26.6667H80.5M53.8333 -3.57628e-06V26.6667M53.8333 -3.57628e-06H80.5M53.8333 26.6667V53.3333M53.8333 26.6667H80.5M53.8333 53.3333V80M53.8333 53.3333H80.5M53.8333 80H80.5M80.5 -80V-53.3333M80.5 -80H107.167M80.5 -53.3333V-26.6667M80.5 -53.3333H107.167M80.5 -26.6667V-3.57628e-06M80.5 -26.6667H107.167M80.5 -3.57628e-06V26.6667M80.5 -3.57628e-06H107.167M80.5 26.6667V53.3333M80.5 26.6667H107.167M80.5 53.3333V80M80.5 53.3333H107.167M80.5 80H107.167M107.167 -80V-53.3333M107.167 -80H133.833M107.167 -53.3333V-26.6667M107.167 -53.3333H133.833M107.167 -26.6667V-3.57628e-06M107.167 -26.6667H133.833M107.167 -3.57628e-06V26.6667M107.167 -3.57628e-06H133.833M107.167 26.6667V53.3333M107.167 26.6667H133.833M107.167 53.3333V80M107.167 53.3333H133.833M107.167 80H133.833M133.833 -80V-53.3333M133.833 -80H160.5M133.833 -53.3333V-26.6667M133.833 -53.3333H160.5M133.833 -26.6667V-3.57628e-06M133.833 -26.6667H160.5M133.833 -3.57628e-06V26.6667M133.833 -3.57628e-06H160.5M133.833 26.6667V53.3333M133.833 26.6667H160.5M133.833 53.3333V80M133.833 53.3333H160.5M133.833 80H160.5M160.5 -80V-53.3333M160.5 -80H187.167M160.5 -53.3333V-26.6667M160.5 -53.3333H187.167M160.5 -26.6667V-3.57628e-06M160.5 -26.6667H187.167M160.5 -3.57628e-06V26.6667M160.5 -3.57628e-06H187.167M160.5 26.6667V53.3333M160.5 26.6667H187.167M160.5 53.3333V80M160.5 53.3333H187.167M160.5 80H187.167M187.167 -80V-53.3333M187.167 -80H213.833M187.167 -53.3333V-26.6667M187.167 -53.3333H213.833M187.167 -26.6667V-3.57628e-06M187.167 -26.6667H213.833M187.167 -3.57628e-06V26.6667M187.167 -3.57628e-06H213.833M187.167 26.6667V53.3333M187.167 26.6667H213.833M187.167 53.3333V80M187.167 53.3333H213.833M187.167 80H213.833M213.833 -80V-53.3333M213.833 -80H240.5M213.833 -53.3333V-26.6667M213.833 -53.3333H240.5M213.833 -26.6667V-3.57628e-06M213.833 -26.6667H240.5M213.833 -3.57628e-06V26.6667M213.833 -3.57628e-06H240.5M213.833 26.6667V53.3333M213.833 26.6667H240.5M213.833 53.3333V80M213.833 53.3333H240.5M213.833 80H240.5M240.5 -80V-53.3333M240.5 -80H267.167M240.5 -53.3333V-26.6667M240.5 -53.3333H267.167M240.5 -26.6667V-3.57628e-06M240.5 -26.6667H267.167M240.5 -3.57628e-06V26.6667M240.5 -3.57628e-06H267.167M240.5 26.6667V53.3333M240.5 26.6667H267.167M240.5 53.3333V80M240.5 53.3333H267.167M240.5 80H267.167M267.167 -80V-53.3333M267.167 -80H293.833M267.167 -53.3333V-26.6667M267.167 -53.3333H293.833M267.167 -26.6667V-3.57628e-06M267.167 -26.6667H293.833M267.167 -3.57628e-06V26.6667M267.167 -3.57628e-06H293.833M267.167 26.6667V53.3333M267.167 26.6667H293.833M267.167 53.3333V80M267.167 53.3333H293.833M267.167 80H293.833M293.833 -80V-53.3333M293.833 -80H320.5V-53.3333M293.833 -53.3333V-26.6667M293.833 -53.3333H320.5M293.833 -26.6667V-3.57628e-06M293.833 -26.6667H320.5M293.833 -3.57628e-06V26.6667M293.833 -3.57628e-06H320.5M293.833 26.6667V53.3333M293.833 26.6667H320.5M293.833 53.3333V80M293.833 53.3333H320.5M293.833 80H320.5V53.3333M320.5 -53.3333V-26.6667M320.5 -26.6667V-3.57628e-06M320.5 -3.57628e-06V26.6667M320.5 26.6667V53.3333" stroke="url(#paint0_radial_154_3371)" stroke-opacity="0.32"/>
<defs>
<radialGradient id="paint0_radial_154_3371" cx="0" cy="0" r="1" gradientUnits="userSpaceOnUse" gradientTransform="translate(160.5) rotate(90) scale(80 160)">
<stop stop-color="#717784"/>
<stop offset="1" stop-color="#717784" stop-opacity="0"/>
</radialGradient>
</defs>
</svg>
