<svg width="219" height="134" viewBox="0 0 219 134" fill="none" xmlns="http://www.w3.org/2000/svg">
<path fill-rule="evenodd" clip-rule="evenodd" d="M192.175 -19.7662L149.149 28.8874L5.62825 66.6093C2.24769 68.3033 2.24769 68.3033 0.403739 71.6905C-0.210915 73.3838 -0.210916 75.6937 1.01839 77.387C2.24769 79.0809 3.93797 80.3121 5.62825 80.7743L100.438 108.334L66.1712 162.685C64.9424 164.378 64.9424 166.688 65.5564 168.997C66.1712 170.691 67.8618 172.385 69.5517 173C71.2423 173.616 73.547 173.616 75.3911 173L188.026 130.044C189.716 129.428 191.56 127.734 192.021 126.04L232.742 21.343L262.399 13.3367C264.704 12.7209 267.009 11.0272 267.624 8.71767C268.852 5.33042 267.009 0.71139 263.014 -0.366379L200.319 -22.0758C199.551 -22.3836 198.782 -22.5376 198.014 -22.5376C195.863 -22.5376 193.865 -21.4598 192.175 -19.7662ZM200.319 -6.67904L235.2 5.94628L221.217 9.33353L175.272 21.343L200.319 -6.67904ZM124.256 99.7121L117.802 98.0188L109.658 95.7089L35.2852 73.9997L156.064 41.9743L214.764 26.5779L179.882 116.341L124.256 99.7121ZM115.497 112.953L158.523 126.04L91.2186 151.753L115.497 112.953Z" fill="#07C0CA" fill-opacity="0.05"/>
</svg>
